<svg version="1.1" xmlns="http://www.w3.org/2000/svg" xmlns:xlink="http://www.w3.org/1999/xlink" width="765" height="1384"><defs/><g><g/><g/><g/><g/><g/><g/><g/><g/><g/><g/><g/><g/><g/><g/><g/><g/><g/><g/><g><rect fill="white" stroke="none" x="0" y="0" width="765" height="1384"/></g><g><text fill="black" stroke="none" font-family="sans-serif" font-size="16.5pt" font-style="normal" font-weight="normal" text-decoration="normal" x="321.91398543738285" y="39.58145414999999" text-anchor="start" dominant-baseline="alphabetic" xml:space="preserve">Routing Slip</text></g><g/><g><path fill="none" stroke="black" paint-order="fill stroke markers" d=" M 224.19341965468755 234.4541467485 L 224.19341965468755 1384.9550807085002" stroke-miterlimit="10" stroke-width="2.1989696750000003" stroke-dasharray="20.298181615384618,8.795878700000001"/><path fill="none" stroke="black" paint-order="fill stroke markers" d=" M 455.336131619336 234.4541467485 L 455.336131619336 1384.9550807085002" stroke-miterlimit="10" stroke-width="2.1989696750000003" stroke-dasharray="20.298181615384618,8.795878700000001"/><path fill="none" stroke="black" paint-order="fill stroke markers" d=" M 632.8673018359376 234.4541467485 L 632.8673018359376 1384.9550807085002" stroke-miterlimit="10" stroke-width="2.1989696750000003" stroke-dasharray="20.298181615384618,8.795878700000001"/></g><g><g><path fill="yellow" stroke="black" paint-order="fill stroke markers" d=" M 239.23437223168756 96.4468099455 A 15.040952577 15.040952577 0 1 1 239.2343647112119 96.4317689954298 M 224.19341965468755 111.48776252249999 L 224.19341965468755 143.6806785645 M 205.19432166268754 123.09832240649999 L 243.19251764668755 123.09832240649999 M 224.19341965468755 143.6806785645 L 205.19432166268754 173.7625837185 M 224.19341965468755 143.6806785645 L 243.19251764668755 173.7625837185" stroke-miterlimit="10" stroke-width="4.485898137" stroke-dasharray=""/></g><g><text fill="black" stroke="none" font-family="sans-serif" font-size="11pt" font-style="normal" font-weight="normal" text-decoration="normal" x="178.4322731092774" y="200.1502198185" text-anchor="start" dominant-baseline="alphabetic" xml:space="preserve">Submit Order</text><text fill="black" stroke="none" font-family="sans-serif" font-size="11pt" font-style="normal" font-weight="normal" text-decoration="normal" x="189.44924851210942" y="226.53785591850001" text-anchor="start" dominant-baseline="alphabetic" xml:space="preserve">Consumer</text></g><path fill="none" stroke="none"/><g><path fill="lime" stroke="black" paint-order="fill stroke markers" d=" M 386.7351179840391 163.47140563949998 L 523.9371452546329 163.47140563949998 L 523.9371452546329 234.45414674849997 L 386.7351179840391 234.45414674849997 L 386.7351179840391 163.47140563949998 Z" stroke-miterlimit="10" stroke-width="4.222021776" stroke-dasharray=""/></g><g><text fill="black" stroke="none" font-family="sans-serif" font-size="11pt" font-style="normal" font-weight="normal" text-decoration="normal" x="415.36570315253914" y="208.0665106485" text-anchor="start" dominant-baseline="alphabetic" xml:space="preserve">Grill Activity</text></g><path fill="none" stroke="none"/><g><path fill="cyan" stroke="black" paint-order="fill stroke markers" d=" M 559.3845056689024 163.47140563949998 L 706.3500980029728 163.47140563949998 L 706.3500980029728 234.45414674849997 L 559.3845056689024 234.45414674849997 L 559.3845056689024 163.47140563949998 Z" stroke-miterlimit="10" stroke-width="4.222021776" stroke-dasharray=""/></g><g><text fill="black" stroke="none" font-family="sans-serif" font-size="11pt" font-style="normal" font-weight="normal" text-decoration="normal" x="588.0150908374025" y="208.0665106485" text-anchor="start" dominant-baseline="alphabetic" xml:space="preserve">Dress Activity</text></g></g><g><path fill="blue" stroke="black" paint-order="fill stroke markers" d=" M 210.99960160468754 392.7799633485 L 237.38723770468755 392.7799633485 L 237.38723770468755 427.0838902785 L 210.99960160468754 427.0838902785 L 210.99960160468754 392.7799633485" stroke-miterlimit="10" stroke-width="2.1989696750000003" stroke-dasharray=""/><path fill="blue" stroke="black" paint-order="fill stroke markers" d=" M 442.142313569336 427.0838902785 L 468.529949669336 427.0838902785 L 468.529949669336 548.4670163385 L 442.142313569336 548.4670163385 L 442.142313569336 427.0838902785" stroke-miterlimit="10" stroke-width="2.1989696750000003" stroke-dasharray=""/><path fill="blue" stroke="black" paint-order="fill stroke markers" d=" M 619.6734837859376 548.4670163385 L 646.0611198859376 548.4670163385 L 646.0611198859376 669.8501423985 L 619.6734837859376 669.8501423985 L 619.6734837859376 548.4670163385" stroke-miterlimit="10" stroke-width="2.1989696750000003" stroke-dasharray=""/><path fill="blue" stroke="black" paint-order="fill stroke markers" d=" M 210.99960160468754 854.5635950985001 L 237.38723770468755 854.5635950985001 L 237.38723770468755 888.8675220285 L 210.99960160468754 888.8675220285 L 210.99960160468754 854.5635950985001" stroke-miterlimit="10" stroke-width="2.1989696750000003" stroke-dasharray=""/><path fill="blue" stroke="black" paint-order="fill stroke markers" d=" M 442.142313569336 888.8675220285 L 468.529949669336 888.8675220285 L 468.529949669336 1010.2506480885 L 442.142313569336 1010.2506480885 L 442.142313569336 888.8675220285" stroke-miterlimit="10" stroke-width="2.1989696750000003" stroke-dasharray=""/><path fill="blue" stroke="black" paint-order="fill stroke markers" d=" M 619.6734837859376 1010.2506480885 L 646.0611198859376 1010.2506480885 L 646.0611198859376 1131.6337741485004 L 619.6734837859376 1131.6337741485004 L 619.6734837859376 1010.2506480885" stroke-miterlimit="10" stroke-width="2.1989696750000003" stroke-dasharray=""/><path fill="blue" stroke="black" paint-order="fill stroke markers" d=" M 442.142313569336 1131.6337741485004 L 468.529949669336 1131.6337741485004 L 468.529949669336 1253.0169002085004 L 442.142313569336 1253.0169002085004 L 442.142313569336 1131.6337741485004" stroke-miterlimit="10" stroke-width="2.1989696750000003" stroke-dasharray=""/><g><g><rect fill="white" stroke="none" x="84.00064158500003" y="358.47603641850003" width="95.7735906346875" height="34.30392693"/></g><text fill="black" stroke="none" font-family="sans-serif" font-size="11pt" font-style="normal" font-weight="normal" text-decoration="normal" x="87.95878700000003" y="382.2249089085" text-anchor="start" dominant-baseline="alphabetic" xml:space="preserve">SubmitOrder</text></g><g><path fill="none" stroke="black" paint-order="fill stroke markers" d=" M 52.7752722 392.7799633485 L 189.27378121568753 392.7799633485" stroke-miterlimit="10" stroke-width="2.1989696750000003" stroke-dasharray="10.555054440000001"/><g transform="translate(210.99960160468754,392.7799633485) translate(-210.99960160468754,-392.7799633485)"><path fill="black" stroke="none" paint-order="stroke fill markers" d=" M 189.00990485468753 381.7851149735 L 210.99960160468754 392.7799633485 L 189.00990485468753 403.7748117235 Z"/></g></g><g><g><rect fill="white" stroke="none" x="295.418377963711" y="392.7799633485" width="88.69279534660156" height="34.30392693"/></g><text fill="black" stroke="none" font-family="sans-serif" font-size="11pt" font-style="normal" font-weight="normal" text-decoration="normal" x="299.376523378711" y="416.5288358385" text-anchor="start" dominant-baseline="alphabetic" xml:space="preserve">Routing Slip</text></g><g><path fill="none" stroke="black" paint-order="fill stroke markers" d=" M 237.38723770468755 427.0838902785 L 420.41649318033603 427.0838902785" stroke-miterlimit="10" stroke-width="2.1989696750000003" stroke-dasharray="10.555054440000001"/><g transform="translate(442.142313569336,427.0838902785) translate(-442.142313569336,-427.0838902785)"><path fill="black" stroke="none" paint-order="stroke fill markers" d=" M 420.152616819336 416.0890419035 L 442.142313569336 427.0838902785 L 420.152616819336 438.0787386535 Z"/></g></g><path fill="white" stroke="black" paint-order="fill stroke markers" d=" M 391.9175118190821 477.2203988685 L 391.9175118190821 477.2203988685 A 23.748872490000004 23.748872490000004 0 0 1 415.6663843090821 453.4715263785 L 495.00587892958987 453.4715263785 L 495.00587892958987 453.4715263785 A 23.748872490000004 23.748872490000004 0 0 1 518.7547514195899 477.2203988685 L 518.7547514195899 490.4142169185 L 518.7547514195899 490.4142169185 A 23.748872490000004 23.748872490000004 0 0 1 495.00587892958987 514.1630894085 L 415.6663843090821 514.1630894085 L 415.6663843090821 514.1630894085 A 23.748872490000004 23.748872490000004 0 0 1 391.9175118190821 490.4142169185 L 391.9175118190821 477.2203988685" stroke-miterlimit="10" stroke-width="2.1989696750000003" stroke-dasharray=""/><g><text fill="black" stroke="none" font-family="sans-serif" font-size="11pt" font-style="normal" font-weight="normal" text-decoration="normal" x="428.8602023590821" y="490.4142169185" text-anchor="start" dominant-baseline="alphabetic" xml:space="preserve">Execute</text></g><g><g><rect fill="white" stroke="none" x="499.75531905433604" y="514.1630894085" width="88.69279534660156" height="34.30392693"/></g><text fill="black" stroke="none" font-family="sans-serif" font-size="11pt" font-style="normal" font-weight="normal" text-decoration="normal" x="503.71346446933603" y="537.9119618985" text-anchor="start" dominant-baseline="alphabetic" xml:space="preserve">Routing Slip</text></g><g><path fill="none" stroke="black" paint-order="fill stroke markers" d=" M 468.529949669336 548.4670163385 L 597.9476633969376 548.4670163385" stroke-miterlimit="10" stroke-width="2.1989696750000003" stroke-dasharray="10.555054440000001"/><g transform="translate(619.6734837859376,548.4670163385) translate(-619.6734837859376,-548.4670163385)"><path fill="black" stroke="none" paint-order="stroke fill markers" d=" M 597.6837870359376 537.4721679635 L 619.6734837859376 548.4670163385 L 597.6837870359376 559.4618647135 Z"/></g></g><path fill="white" stroke="black" paint-order="fill stroke markers" d=" M 569.4486820356836 598.6035249285001 L 569.4486820356836 598.6035249285001 A 23.748872490000004 23.748872490000004 0 0 1 593.1975545256837 574.8546524385 L 672.5370491461914 574.8546524385 L 672.5370491461914 574.8546524385 A 23.748872490000004 23.748872490000004 0 0 1 696.2859216361915 598.6035249285001 L 696.2859216361915 611.7973429785 L 696.2859216361915 611.7973429785 A 23.748872490000004 23.748872490000004 0 0 1 672.5370491461914 635.5462154685 L 593.1975545256837 635.5462154685 L 593.1975545256837 635.5462154685 A 23.748872490000004 23.748872490000004 0 0 1 569.4486820356836 611.7973429785 L 569.4486820356836 598.6035249285001" stroke-miterlimit="10" stroke-width="2.1989696750000003" stroke-dasharray=""/><g><text fill="black" stroke="none" font-family="sans-serif" font-size="11pt" font-style="normal" font-weight="normal" text-decoration="normal" x="606.3913725756837" y="611.7973429785001" text-anchor="start" dominant-baseline="alphabetic" xml:space="preserve">Execute</text></g><g><g><rect fill="white" stroke="none" x="337.7338817447657" y="635.5462154685" width="168.39913995109376" height="34.30392693"/></g><text fill="black" stroke="none" font-family="sans-serif" font-size="11pt" font-style="normal" font-weight="normal" text-decoration="normal" x="341.6920271597657" y="659.2950879585001" text-anchor="start" dominant-baseline="alphabetic" xml:space="preserve">Routing Slip Completed</text></g><g><path fill="none" stroke="green" paint-order="fill stroke markers" d=" M 619.6734837859376 669.8501423985 L 245.91924004368755 669.8501423985" stroke-miterlimit="10" stroke-width="2.1989696750000003" stroke-dasharray="10.555054440000001"/><g transform="translate(224.19341965468755,669.8501423985) translate(-224.19341965468755,-669.8501423985)"><path fill="green" stroke="none" paint-order="stroke fill markers" d=" M 246.18311640468755 658.8552940235 L 224.19341965468755 669.8501423985 L 246.18311640468755 680.8449907735 Z"/></g></g><g><g><rect fill="white" stroke="none" x="84.00064158500003" y="820.2596681685001" width="95.7735906346875" height="34.30392693"/></g><text fill="black" stroke="none" font-family="sans-serif" font-size="11pt" font-style="normal" font-weight="normal" text-decoration="normal" x="87.95878700000003" y="844.0085406585001" text-anchor="start" dominant-baseline="alphabetic" xml:space="preserve">SubmitOrder</text></g><g><path fill="none" stroke="black" paint-order="fill stroke markers" d=" M 52.7752722 854.5635950985001 L 189.27378121568753 854.5635950985001" stroke-miterlimit="10" stroke-width="2.1989696750000003" stroke-dasharray="10.555054440000001"/><g transform="translate(210.99960160468754,854.5635950985001) translate(-210.99960160468754,-854.5635950985001)"><path fill="black" stroke="none" paint-order="stroke fill markers" d=" M 189.00990485468753 843.5687467235001 L 210.99960160468754 854.5635950985001 L 189.00990485468753 865.5584434735 Z"/></g></g><g><g><rect fill="white" stroke="none" x="295.418377963711" y="854.5635950985001" width="88.69279534660156" height="34.30392693"/></g><text fill="black" stroke="none" font-family="sans-serif" font-size="11pt" font-style="normal" font-weight="normal" text-decoration="normal" x="299.376523378711" y="878.3124675885001" text-anchor="start" dominant-baseline="alphabetic" xml:space="preserve">Routing Slip</text></g><g><path fill="none" stroke="black" paint-order="fill stroke markers" d=" M 237.38723770468755 888.8675220285 L 420.41649318033603 888.8675220285" stroke-miterlimit="10" stroke-width="2.1989696750000003" stroke-dasharray="10.555054440000001"/><g transform="translate(442.142313569336,888.8675220285) translate(-442.142313569336,-888.8675220285)"><path fill="black" stroke="none" paint-order="stroke fill markers" d=" M 420.152616819336 877.8726736535001 L 442.142313569336 888.8675220285 L 420.152616819336 899.8623704035 Z"/></g></g><path fill="white" stroke="black" paint-order="fill stroke markers" d=" M 391.9175118190821 939.0040306185001 L 391.9175118190821 939.0040306185001 A 23.748872490000004 23.748872490000004 0 0 1 415.6663843090821 915.2551581285 L 495.00587892958987 915.2551581285 L 495.00587892958987 915.2551581285 A 23.748872490000004 23.748872490000004 0 0 1 518.7547514195899 939.0040306185001 L 518.7547514195899 952.1978486685 L 518.7547514195899 952.1978486685 A 23.748872490000004 23.748872490000004 0 0 1 495.00587892958987 975.9467211585 L 415.6663843090821 975.9467211585 L 415.6663843090821 975.9467211585 A 23.748872490000004 23.748872490000004 0 0 1 391.9175118190821 952.1978486685 L 391.9175118190821 939.0040306185001" stroke-miterlimit="10" stroke-width="2.1989696750000003" stroke-dasharray=""/><g><text fill="black" stroke="none" font-family="sans-serif" font-size="11pt" font-style="normal" font-weight="normal" text-decoration="normal" x="428.8602023590821" y="952.1978486685001" text-anchor="start" dominant-baseline="alphabetic" xml:space="preserve">Execute</text></g><g><g><rect fill="white" stroke="none" x="499.75531905433604" y="975.9467211585" width="88.69279534660156" height="34.30392693"/></g><text fill="black" stroke="none" font-family="sans-serif" font-size="11pt" font-style="normal" font-weight="normal" text-decoration="normal" x="503.71346446933603" y="999.6955936485001" text-anchor="start" dominant-baseline="alphabetic" xml:space="preserve">Routing Slip</text></g><g><path fill="none" stroke="black" paint-order="fill stroke markers" d=" M 468.529949669336 1010.2506480885 L 597.9476633969376 1010.2506480885" stroke-miterlimit="10" stroke-width="2.1989696750000003" stroke-dasharray="10.555054440000001"/><g transform="translate(619.6734837859376,1010.2506480885) translate(-619.6734837859376,-1010.2506480885)"><path fill="black" stroke="none" paint-order="stroke fill markers" d=" M 597.6837870359376 999.2557997135001 L 619.6734837859376 1010.2506480885 L 597.6837870359376 1021.2454964635 Z"/></g></g><path fill="white" stroke="black" paint-order="fill stroke markers" d=" M 553.4619800703516 1060.3871566785 L 553.4619800703516 1060.3871566785 A 23.748872490000004 23.748872490000004 0 0 1 577.2108525603517 1036.6382841885002 L 688.5237511115234 1036.6382841885002 L 688.5237511115234 1036.6382841885002 A 23.748872490000004 23.748872490000004 0 0 1 712.2726236015235 1060.3871566785 L 712.2726236015235 1073.5809747285002 L 712.2726236015235 1073.5809747285002 A 23.748872490000004 23.748872490000004 0 0 1 688.5237511115234 1097.3298472185002 L 577.2108525603517 1097.3298472185002 L 577.2108525603517 1097.3298472185002 A 23.748872490000004 23.748872490000004 0 0 1 553.4619800703516 1073.5809747285002 L 553.4619800703516 1060.3871566785" stroke-miterlimit="10" stroke-width="2.1989696750000003" stroke-dasharray=""/><g><text fill="black" stroke="none" font-family="sans-serif" font-size="11pt" font-style="normal" font-weight="normal" text-decoration="normal" x="590.4046706103517" y="1073.5809747285" text-anchor="start" dominant-baseline="alphabetic" xml:space="preserve">Execute (fail)</text></g><g><g><rect fill="white" stroke="none" x="499.75531905433604" y="1097.3298472185004" width="88.69279534660156" height="34.30392693"/></g><text fill="black" stroke="none" font-family="sans-serif" font-size="11pt" font-style="normal" font-weight="normal" text-decoration="normal" x="503.71346446933603" y="1121.0787197085003" text-anchor="start" dominant-baseline="alphabetic" xml:space="preserve">Routing Slip</text></g><g><path fill="none" stroke="red" paint-order="fill stroke markers" d=" M 619.6734837859376 1131.6337741485004 L 490.255770058336 1131.6337741485004" stroke-miterlimit="10" stroke-width="2.1989696750000003" stroke-dasharray="10.555054440000001"/><g transform="translate(468.529949669336,1131.6337741485004) translate(-468.529949669336,-1131.6337741485004)"><path fill="red" stroke="none" paint-order="stroke fill markers" d=" M 490.519646419336 1120.6389257735004 L 468.529949669336 1131.6337741485004 L 490.519646419336 1142.6286225235003 Z"/></g></g><path fill="white" stroke="black" paint-order="fill stroke markers" d=" M 375.5349663478907 1181.7702827385 L 375.5349663478907 1181.7702827385 A 23.748872490000004 23.748872490000004 0 0 1 399.2838388378907 1158.0214102485002 L 511.3884244007813 1158.0214102485002 L 511.3884244007813 1158.0214102485002 A 23.748872490000004 23.748872490000004 0 0 1 535.1372968907813 1181.7702827385 L 535.1372968907813 1194.9641007885002 L 535.1372968907813 1194.9641007885002 A 23.748872490000004 23.748872490000004 0 0 1 511.3884244007813 1218.7129732785002 L 399.2838388378907 1218.7129732785002 L 399.2838388378907 1218.7129732785002 A 23.748872490000004 23.748872490000004 0 0 1 375.5349663478907 1194.9641007885002 L 375.5349663478907 1181.7702827385" stroke-miterlimit="10" stroke-width="2.1989696750000003" stroke-dasharray=""/><g><text fill="black" stroke="none" font-family="sans-serif" font-size="11pt" font-style="normal" font-weight="normal" text-decoration="normal" x="412.4776568878907" y="1194.9641007885" text-anchor="start" dominant-baseline="alphabetic" xml:space="preserve">Compensate</text></g><g><g><rect fill="white" stroke="none" x="262.01569806468757" y="1218.7129732785004" width="142.30433709464845" height="34.30392693"/></g><text fill="black" stroke="none" font-family="sans-serif" font-size="11pt" font-style="normal" font-weight="normal" text-decoration="normal" x="265.97384347968756" y="1242.4618457685003" text-anchor="start" dominant-baseline="alphabetic" xml:space="preserve">Routing Slip Faulted</text></g><g><path fill="none" stroke="red" paint-order="fill stroke markers" d=" M 442.142313569336 1253.0169002085004 L 245.91924004368755 1253.0169002085004" stroke-miterlimit="10" stroke-width="2.1989696750000003" stroke-dasharray="10.555054440000001"/><g transform="translate(224.19341965468755,1253.0169002085004) translate(-224.19341965468755,-1253.0169002085004)"><path fill="red" stroke="none" paint-order="stroke fill markers" d=" M 246.18311640468755 1242.0220518335004 L 224.19341965468755 1253.0169002085004 L 246.18311640468755 1264.0117485835003 Z"/></g></g><g><g/><path fill="none" stroke="black" paint-order="fill stroke markers" d=" M 26.3876361 287.22941894850004 L 725.2240281859376 287.22941894850004 L 725.2240281859376 709.4315965485 L 26.3876361 709.4315965485 L 26.3876361 287.22941894850004 Z" stroke-miterlimit="10" stroke-width="3.7696623000000002" stroke-dasharray=""/><path fill="white" stroke="black" paint-order="fill stroke markers" d=" M 26.3876361 287.22941894850004 L 26.3876361 318.8945822685 L 121.766179784375 318.8945822685 L 137.598761444375 303.06200060850006 L 137.598761444375 287.22941894850004 L 26.3876361 287.22941894850004" stroke-miterlimit="10" stroke-width="3.7696623000000002" stroke-dasharray=""/><text fill="black" stroke="none" font-family="sans-serif" font-size="8.8pt" font-style="normal" font-weight="bold" text-decoration="normal" x="52.7752722" y="308.3395278285" text-anchor="start" dominant-baseline="alphabetic" xml:space="preserve">success</text></g><g><g/><path fill="none" stroke="black" paint-order="fill stroke markers" d=" M 26.3876361 749.0130506985 L 725.4664416515236 749.0130506985 L 725.4664416515236 1292.5983543585003 L 26.3876361 1292.5983543585003 L 26.3876361 749.0130506985 Z" stroke-miterlimit="10" stroke-width="3.7696623000000002" stroke-dasharray=""/><path fill="white" stroke="black" paint-order="fill stroke markers" d=" M 26.3876361 749.0130506985 L 26.3876361 780.6782140185001 L 115.66660092695312 780.6782140185001 L 131.4991825869531 764.8456323585 L 131.4991825869531 749.0130506985 L 26.3876361 749.0130506985" stroke-miterlimit="10" stroke-width="3.7696623000000002" stroke-dasharray=""/><text fill="black" stroke="none" font-family="sans-serif" font-size="8.8pt" font-style="normal" font-weight="bold" text-decoration="normal" x="52.7752722" y="770.1231595785" text-anchor="start" dominant-baseline="alphabetic" xml:space="preserve">failure</text></g></g></g></svg>